<svg width="800" height="800" viewBox="0 0 800 800" fill="none" xmlns="http://www.w3.org/2000/svg">
  <rect width="800" height="800" fill="#F3F4F6"/>
  <path d="M400 300C357.909 300 325 267.091 325 225C325 182.909 357.909 150 400 150C442.091 150 475 182.909 475 225C475 267.091 442.091 300 400 300ZM400 163.636C367.273 163.636 338.636 192.273 338.636 225C338.636 257.727 367.273 286.364 400 286.364C432.727 286.364 461.364 257.727 461.364 225C461.364 192.273 432.727 163.636 400 163.636Z" fill="#9CA3AF"/>
  <path d="M500 650H300C274.909 650 254.545 629.636 254.545 604.545V350C254.545 324.909 274.909 304.545 300 304.545H500C525.091 304.545 545.455 324.909 545.455 350V604.545C545.455 629.636 525.091 650 500 650ZM300 318.182C282.636 318.182 268.182 332.636 268.182 350V604.545C268.182 621.909 282.636 636.364 300 636.364H500C517.364 636.364 531.818 621.909 531.818 604.545V350C531.818 332.636 517.364 318.182 500 318.182H300Z" fill="#9CA3AF"/>
</svg>
